name Run_20002_GRF.mot
datacolumns 19
datarows 25
range 0.199 0.223
endheader
time	     ground_force_vx	     ground_force_vy	     ground_force_vz	     ground_force_px	     ground_force_py	     ground_force_pz	   l_ground_force_vx	   l_ground_force_vy	   l_ground_force_vz	   l_ground_force_px	   l_ground_force_py	   l_ground_force_pz	     ground_torque_x	     ground_torque_y	     ground_torque_z	   l_ground_torque_x	   l_ground_torque_y	   l_ground_torque_z	
0.199	          0.00000000	          0.00000000	          0.00000000	          0.00000000	          0.00000000	          0.00000000	          0.00000000	          0.00000000	          0.00000000	          0.00000000	          0.00000000	          0.00000000	          0.00000000	          0.00000000	          0.00000000	          0.00000000	          0.00000000	          0.00000000	
0.2	        -10.22128800	         28.21601900	         -4.53587400	          1.13121200	          0.00000000	         -0.27496600	          0.00000000	          0.00000000	          0.00000000	          0.00000000	          0.00000000	          0.00000000	          0.00000000	          0.32398100	          0.00000000	          0.00000000	          0.00000000	          0.00000000	
0.201	        -10.92016400	         31.57115200	         -5.14545200	          1.13359600	          0.00000000	         -0.27544600	          0.00000000	          0.00000000	          0.00000000	          0.00000000	          0.00000000	          0.00000000	          0.00000000	          0.43336000	          0.00000000	          0.00000000	          0.00000000	          0.00000000	
0.202	        -11.62673100	         35.33218400	         -5.78738500	          1.13548800	          0.00000000	         -0.27599600	          0.00000000	          0.00000000	          0.00000000	          0.00000000	          0.00000000	          0.00000000	          0.00000000	          0.54742400	          0.00000000	          0.00000000	          0.00000000	          0.00000000	
0.203	        -12.32905400	         39.52604300	         -6.46205000	          1.13698200	          0.00000000	         -0.27659200	          0.00000000	          0.00000000	          0.00000000	          0.00000000	          0.00000000	          0.00000000	          0.00000000	          0.66591300	          0.00000000	          0.00000000	          0.00000000	          0.00000000	
0.204	        -13.01350700	         44.17993200	         -7.16963600	          1.13815200	          0.00000000	         -0.27721700	          0.00000000	          0.00000000	          0.00000000	          0.00000000	          0.00000000	          0.00000000	          0.00000000	          0.78854800	          0.00000000	          0.00000000	          0.00000000	          0.00000000	
0.205	        -13.66495600	         49.32117800	         -7.91012300	          1.13905500	          0.00000000	         -0.27785500	          0.00000000	          0.00000000	          0.00000000	          0.00000000	          0.00000000	          0.00000000	          0.00000000	          0.91503100	          0.00000000	          0.00000000	          0.00000000	          0.00000000	
0.206	        -14.26700300	         54.97703200	         -8.68325800	          1.13973400	          0.00000000	         -0.27849700	          0.00000000	          0.00000000	          0.00000000	          0.00000000	          0.00000000	          0.00000000	          0.00000000	          1.04504300	          0.00000000	          0.00000000	          0.00000000	          0.00000000	
0.207	        -14.80229800	         61.17446500	         -9.48853900	          1.14022300	          0.00000000	         -0.27913700	          0.00000000	          0.00000000	          0.00000000	          0.00000000	          0.00000000	          0.00000000	          0.00000000	          1.17824900	          0.00000000	          0.00000000	          0.00000000	          0.00000000	
0.208	        -15.25291100	         67.93997200	        -10.32519100	          1.14054600	          0.00000000	         -0.27976800	          0.00000000	          0.00000000	          0.00000000	          0.00000000	          0.00000000	          0.00000000	          0.00000000	          1.31429600	          0.00000000	          0.00000000	          0.00000000	          0.00000000	
0.209	        -15.60076300	         75.29933900	        -11.19215100	          1.14071900	          0.00000000	         -0.28038900	          0.00000000	          0.00000000	          0.00000000	          0.00000000	          0.00000000	          0.00000000	          0.00000000	          1.45281600	          0.00000000	          0.00000000	          0.00000000	          0.00000000	
0.21	        -15.82810300	         83.27745800	        -12.08804300	          1.14075600	          0.00000000	         -0.28099900	          0.00000000	          0.00000000	          0.00000000	          0.00000000	          0.00000000	          0.00000000	          0.00000000	          1.59342400	          0.00000000	          0.00000000	          0.00000000	          0.00000000	
0.211	        -15.91801200	         91.89805600	        -13.01117300	          1.14066600	          0.00000000	         -0.28159600	          0.00000000	          0.00000000	          0.00000000	          0.00000000	          0.00000000	          0.00000000	          0.00000000	          1.73572300	          0.00000000	          0.00000000	          0.00000000	          0.00000000	
0.212	        -15.85493600	        101.18350200	        -13.95950800	          1.14045600	          0.00000000	         -0.28218200	          0.00000000	          0.00000000	          0.00000000	          0.00000000	          0.00000000	          0.00000000	          0.00000000	          1.87930500	          0.00000000	          0.00000000	          0.00000000	          0.00000000	
0.213	        -15.62521200	        111.15453300	        -14.93067000	          1.14013100	          0.00000000	         -0.28275700	          0.00000000	          0.00000000	          0.00000000	          0.00000000	          0.00000000	          0.00000000	          0.00000000	          2.02375000	          0.00000000	          0.00000000	          0.00000000	          0.00000000	
0.214	        -15.21758400	        121.83004000	        -15.92193300	          1.13969500	          0.00000000	         -0.28332300	          0.00000000	          0.00000000	          0.00000000	          0.00000000	          0.00000000	          0.00000000	          0.00000000	          2.16862800	          0.00000000	          0.00000000	          0.00000000	          0.00000000	
0.215	        -14.62367100	        133.22680700	        -16.93021800	          1.13915300	          0.00000000	         -0.28388100	          0.00000000	          0.00000000	          0.00000000	          0.00000000	          0.00000000	          0.00000000	          0.00000000	          2.31350500	          0.00000000	          0.00000000	          0.00000000	          0.00000000	
0.216	        -13.83839300	        145.35922200	        -17.95210100	          1.13850800	          0.00000000	         -0.28443300	          0.00000000	          0.00000000	          0.00000000	          0.00000000	          0.00000000	          0.00000000	          0.00000000	          2.45793800	          0.00000000	          0.00000000	          0.00000000	          0.00000000	
0.217	        -12.86031500	        158.23909000	        -18.98381800	          1.13776500	          0.00000000	         -0.28498100	          0.00000000	          0.00000000	          0.00000000	          0.00000000	          0.00000000	          0.00000000	          0.00000000	          2.60148400	          0.00000000	          0.00000000	          0.00000000	          0.00000000	
0.218	        -11.69191000	        171.87522900	        -20.02128800	          1.13693000	          0.00000000	         -0.28552600	          0.00000000	          0.00000000	          0.00000000	          0.00000000	          0.00000000	          0.00000000	          0.00000000	          2.74369500	          0.00000000	          0.00000000	          0.00000000	          0.00000000	
0.219	        -10.33972100	        186.27323900	        -21.06012500	          1.13600900	          0.00000000	         -0.28607000	          0.00000000	          0.00000000	          0.00000000	          0.00000000	          0.00000000	          0.00000000	          0.00000000	          2.88412600	          0.00000000	          0.00000000	          0.00000000	          0.00000000	
0.22	         -8.81442300	        201.43518100	        -22.09567800	          1.13500900	          0.00000000	         -0.28661200	          0.00000000	          0.00000000	          0.00000000	          0.00000000	          0.00000000	          0.00000000	          0.00000000	          3.02233400	          0.00000000	          0.00000000	          0.00000000	          0.00000000	
0.221	         -7.13076700	        217.35916100	        -23.12305800	          1.13393800	          0.00000000	         -0.28715500	          0.00000000	          0.00000000	          0.00000000	          0.00000000	          0.00000000	          0.00000000	          0.00000000	          3.15788000	          0.00000000	          0.00000000	          0.00000000	          0.00000000	
0.222	         -5.30743200	        234.03904700	        -24.13718600	          1.13280500	          0.00000000	         -0.28769700	          0.00000000	          0.00000000	          0.00000000	          0.00000000	          0.00000000	          0.00000000	          0.00000000	          3.29033000	          0.00000000	          0.00000000	          0.00000000	          0.00000000	
0.223	         -3.36674900	        251.46397400	        -25.13283700	          1.13162100	          0.00000000	         -0.28824000	          0.00000000	          0.00000000	          0.00000000	          0.00000000	          0.00000000	          0.00000000	          0.00000000	          3.41926300	          0.00000000	          0.00000000	          0.00000000	          0.00000000	
